<svg width="314" height="342" viewBox="0 0 314 342" fill="none" xmlns="http://www.w3.org/2000/svg">
<g clip-path="url(#clip0_377_1128)">
<mask id="path-1-inside-1_377_1128" fill="white">
<path d="M287.802 157.373C287.802 120.964 276.259 85.6811 255.138 57.5366C234.018 29.392 204.627 10.1269 171.975 3.02387C139.322 -4.07918 105.428 1.41929 76.0666 18.5824C46.7054 35.7455 23.6942 63.5113 10.9538 97.1489C-1.78659 130.786 -3.4679 168.215 6.19634 203.056C15.8606 237.897 36.2724 267.996 63.954 288.224C91.6355 308.451 124.874 317.557 158.006 313.988C191.138 310.419 222.113 294.397 245.655 268.652L189.855 207.629C179.224 219.256 165.234 226.492 150.271 228.104C135.308 229.716 120.297 225.604 107.795 216.468C95.2934 207.333 86.0749 193.74 81.7103 178.004C77.3457 162.269 78.105 145.366 83.8589 130.174C89.6127 114.983 100.005 102.443 113.265 94.6917C126.526 86.9404 141.833 84.4572 156.58 87.6651C171.327 90.873 184.6 99.5736 194.138 112.284C203.677 124.995 208.89 140.93 208.89 157.373H287.802Z"/>
</mask>
<path d="M287.802 157.373C287.802 120.964 276.259 85.6811 255.138 57.5366C234.018 29.392 204.627 10.1269 171.975 3.02387C139.322 -4.07918 105.428 1.41929 76.0666 18.5824C46.7054 35.7455 23.6942 63.5113 10.9538 97.1489C-1.78659 130.786 -3.4679 168.215 6.19634 203.056C15.8606 237.897 36.2724 267.996 63.954 288.224C91.6355 308.451 124.874 317.557 158.006 313.988C191.138 310.419 222.113 294.397 245.655 268.652L189.855 207.629C179.224 219.256 165.234 226.492 150.271 228.104C135.308 229.716 120.297 225.604 107.795 216.468C95.2934 207.333 86.0749 193.74 81.7103 178.004C77.3457 162.269 78.105 145.366 83.8589 130.174C89.6127 114.983 100.005 102.443 113.265 94.6917C126.526 86.9404 141.833 84.4572 156.58 87.6651C171.327 90.873 184.6 99.5736 194.138 112.284C203.677 124.995 208.89 140.93 208.89 157.373H287.802Z" stroke="#2D94F3" stroke-width="160" mask="url(#path-1-inside-1_377_1128)"/>
<path d="M287.802 157.373C287.802 120.964 276.259 85.6811 255.138 57.5366C234.018 29.392 204.627 10.1269 171.975 3.02387C139.322 -4.07918 105.428 1.41929 76.0666 18.5824C46.7054 35.7455 23.6942 63.5113 10.9538 97.1489C-1.78659 130.786 -3.4679 168.215 6.19634 203.056C15.8606 237.897 36.2724 267.996 63.954 288.224C91.6355 308.451 124.874 317.557 158.006 313.988C191.138 310.419 222.113 294.397 245.655 268.652L189.855 207.629C179.224 219.256 165.234 226.492 150.271 228.104C135.308 229.716 120.297 225.604 107.795 216.468C95.2934 207.333 86.0749 193.74 81.7103 178.004C77.3457 162.269 78.105 145.366 83.8589 130.174C89.6127 114.983 100.005 102.443 113.265 94.6917C126.526 86.9404 141.833 84.4572 156.58 87.6651C171.327 90.873 184.6 99.5736 194.138 112.284C203.677 124.995 208.89 140.93 208.89 157.373H287.802Z" stroke="#2D94F3" stroke-width="160" mask="url(#path-1-inside-1_377_1128)"/>
<path d="M287.802 157.373C287.802 120.964 276.259 85.6811 255.138 57.5366C234.018 29.392 204.627 10.1269 171.975 3.02387C139.322 -4.07918 105.428 1.41929 76.0666 18.5824C46.7054 35.7455 23.6942 63.5113 10.9538 97.1489C-1.78659 130.786 -3.4679 168.215 6.19634 203.056C15.8606 237.897 36.2724 267.996 63.954 288.224C91.6355 308.451 124.874 317.557 158.006 313.988C191.138 310.419 222.113 294.397 245.655 268.652L189.855 207.629C179.224 219.256 165.234 226.492 150.271 228.104C135.308 229.716 120.297 225.604 107.795 216.468C95.2934 207.333 86.0749 193.74 81.7103 178.004C77.3457 162.269 78.105 145.366 83.8589 130.174C89.6127 114.983 100.005 102.443 113.265 94.6917C126.526 86.9404 141.833 84.4572 156.58 87.6651C171.327 90.873 184.6 99.5736 194.138 112.284C203.677 124.995 208.89 140.93 208.89 157.373H287.802Z" stroke="#2D94F3" stroke-width="160" mask="url(#path-1-inside-1_377_1128)"/>
<path d="M287.802 157.373C287.802 120.964 276.259 85.6811 255.138 57.5366C234.018 29.392 204.627 10.1269 171.975 3.02387C139.322 -4.07918 105.428 1.41929 76.0666 18.5824C46.7054 35.7455 23.6942 63.5113 10.9538 97.1489C-1.78659 130.786 -3.4679 168.215 6.19634 203.056C15.8606 237.897 36.2724 267.996 63.954 288.224C91.6355 308.451 124.874 317.557 158.006 313.988C191.138 310.419 222.113 294.397 245.655 268.652L189.855 207.629C179.224 219.256 165.234 226.492 150.271 228.104C135.308 229.716 120.297 225.604 107.795 216.468C95.2934 207.333 86.0749 193.74 81.7103 178.004C77.3457 162.269 78.105 145.366 83.8589 130.174C89.6127 114.983 100.005 102.443 113.265 94.6917C126.526 86.9404 141.833 84.4572 156.58 87.6651C171.327 90.873 184.6 99.5736 194.138 112.284C203.677 124.995 208.89 140.93 208.89 157.373H287.802Z" stroke="#2D94F3" stroke-width="160" mask="url(#path-1-inside-1_377_1128)"/>
<rect x="131" y="261.944" width="80" height="184" transform="rotate(-42.4 131 261.944)" fill="#2D94F3"/>
</g>
<defs>
<clipPath id="clip0_377_1128">
<rect width="314" height="341.348" fill="white"/>
</clipPath>
</defs>
</svg>
